# xmcd
#
# Track frame offsets: 
#        150
#        16045
#        31466
#        46088
#        59885
#        78200
#        97609
#        111796
#        127722
#        144581
#        158484
#        172960
#
# Disc length: 2578 seconds
#
# Revision: 0
# Processed by: cddbd v1.5.2PL0 Copyright (c) Steve Scherf et al.
# Submitted via: ExactAudioCopy v0.99pb3
#
DISCID=820a100c
DTITLE=20th Century Masters - Men of Country
DYEAR=2003
DGENRE=Country
TTITLE0=Tracy Byrd - I'm From The Country
TTITLE1=Jason McCoy - Born Again In Dixieland
TTITLE2=Mavericks - O What A Thrill
TTITLE3=Tracy Lawrence - Alibis
TTITLE4=Mark Chesnutt - I Dont Want To Miss A Thing
TTITLE5=Gary Allan - Smoke Rings In The Dark
TTITLE6=Lyle Lovett - If I Had A Boat
TTITLE7=Paul Brandt - Calm Before The Storm 
TTITLE8=David Lee Murphy - Dust On The Bottle
TTITLE9=Sammy Kershaw - Dont Go Near The Water
TTITLE10=Vince Gill - One More Last Chance
TTITLE11=Steve Earle - Copperhead Road
EXTD=
EXTT0=
EXTT1=
EXTT2=
EXTT3=
EXTT4=
EXTT5=
EXTT6=
EXTT7=
EXTT8=
EXTT9=
EXTT10=
EXTT11=
PLAYORDER=
